<?xml version="1.0" standalone="no"?>
<!DOCTYPE svg PUBLIC "-//W3C//DTD SVG 20010904//EN"
 "http://www.w3.org/TR/2001/REC-SVG-20010904/DTD/svg10.dtd">
<svg version="1.0" xmlns="http://www.w3.org/2000/svg"
 width="1215.000000pt" height="523.000000pt" viewBox="0 0 1215.000000 523.000000"
 preserveAspectRatio="xMidYMid meet" fill="white">

<g transform="translate(0.000000,523.000000) scale(0.100000,-0.100000)"
fill="#000000" stroke="none">
<path d="M5315 4981 c-3 -5 4 -12 15 -16 11 -3 20 -11 20 -16 0 -5 -21 -102
-46 -215 -26 -113 -44 -208 -40 -212 4 -3 15 -1 25 5 11 7 23 8 32 2 8 -5 35
-9 60 -9 93 0 158 78 167 200 4 63 3 70 -21 94 -14 14 -36 26 -48 26 -28 0
-86 -36 -100 -62 -21 -40 -19 -8 6 90 14 55 25 105 25 111 0 13 -87 15 -95 2z
m163 -193 c15 -15 15 -90 1 -143 -13 -45 -68 -105 -97 -105 -37 0 -55 29 -48
78 16 114 100 214 144 170z"/>
<path d="M1486 4552 c-20 -21 -24 -32 -16 -37 8 -5 16 -1 22 9 17 30 46 19 57
-21 24 -91 25 -87 -19 -139 -30 -37 -47 -49 -68 -49 -22 0 -28 -5 -30 -27 -3
-24 0 -28 20 -28 23 0 60 33 105 92 l21 28 12 -47 c14 -59 26 -73 58 -73 24 0
82 44 82 62 0 14 -28 9 -34 -7 -3 -8 -14 -15 -25 -15 -15 0 -23 10 -30 38 -26
96 -26 97 19 146 33 36 47 45 65 40 17 -4 24 0 29 18 9 37 8 39 -26 36 -25 -2
-42 -15 -75 -56 l-43 -52 -5 27 c-17 85 -68 108 -119 55z"/>
<path d="M1875 4418 c-65 -33 -86 -48 -79 -59 4 -6 15 -4 30 5 42 28 45 23 42
-96 l-3 -113 -32 -3 c-18 -2 -33 -7 -33 -13 0 -5 43 -9 95 -9 57 0 95 4 95 10
0 6 -10 10 -22 10 -44 0 -47 9 -50 152 l-3 136 -40 -20z"/>
<path d="M2186 4339 c-37 -33 -45 -85 -16 -121 24 -32 78 -45 110 -28 19 10
149 -60 1204 -651 l1183 -663 -56 -76 c-112 -151 -178 -314 -202 -497 l-13
-93 -1033 0 -1034 0 -23 27 c-34 39 -98 39 -132 0 -33 -39 -31 -81 5 -118 40
-39 82 -39 123 1 l30 30 1032 0 1033 0 12 -87 c24 -180 96 -355 202 -496 28
-37 50 -70 48 -72 -2 -2 -532 -249 -1178 -548 -1168 -543 -1173 -545 -1206
-531 -44 18 -90 2 -110 -37 -22 -42 -18 -67 14 -100 41 -41 90 -40 125 2 14
17 26 38 26 48 0 13 288 150 1190 569 l1191 553 47 -39 c331 -273 763 -318
1138 -118 288 154 482 435 526 766 l12 90 758 0 758 0 2 -347 3 -348 725 0
725 0 3 348 2 347 825 0 825 0 0 -30 0 -30 85 42 c47 23 85 45 85 48 0 3 -38
25 -85 48 l-85 42 0 -30 0 -30 -825 0 -825 0 -2 348 -3 347 -725 0 -725 0 -3
-347 -2 -348 -758 0 -758 0 -12 94 c-29 229 -130 435 -291 597 -162 162 -363
260 -597 290 l-91 12 -7 326 c-3 179 -9 419 -12 534 l-7 207 -30 0 -30 0 7
-232 c3 -128 9 -368 12 -534 l7 -301 -89 -12 c-187 -25 -348 -92 -501 -208
l-83 -62 -1190 667 c-1031 577 -1190 669 -1190 688 0 34 -40 74 -81 80 -28 5
-41 1 -63 -17z m3458 -1228 c366 -96 631 -374 706 -741 135 -661 -459 -1255
-1120 -1120 -394 80 -686 381 -755 779 -44 251 25 530 181 731 197 254 477
386 794 375 72 -2 145 -11 194 -24z m3706 -931 l0 -670 -670 0 -670 0 0 670 0
670 670 0 670 0 0 -670z"/>
<path d="M5040 2690 c0 -10 74 -134 164 -274 l164 -255 -174 -239 c-96 -132
-174 -249 -174 -261 0 -21 0 -21 359 -21 l359 0 6 88 c4 48 8 111 10 140 l5
53 -36 -3 c-34 -3 -37 -6 -48 -50 -17 -68 -39 -96 -86 -108 -42 -12 -392 -10
-404 1 -3 4 62 100 145 214 82 114 150 217 150 228 0 11 -61 113 -135 227 -74
114 -135 210 -135 213 0 4 78 7 173 7 153 0 176 -2 204 -20 35 -21 64 -70 82
-138 11 -37 15 -42 41 -42 l30 0 0 130 0 130 -350 0 c-341 0 -350 0 -350 -20z"/>
<path d="M8733 2539 c-71 -35 -113 -102 -113 -181 0 -44 -18 -77 -45 -84 -39
-10 -32 -34 10 -34 l35 0 0 -189 c0 -199 -6 -235 -39 -246 -12 -3 -21 -13 -21
-21 0 -11 21 -14 110 -14 91 0 110 3 110 15 0 8 -6 15 -13 15 -8 0 -22 9 -32
20 -16 18 -19 43 -23 165 -3 79 -1 169 2 199 l7 56 65 0 64 0 0 30 0 30 -64 0
c-62 0 -65 1 -70 28 -9 44 9 141 30 162 36 34 61 34 95 1 17 -18 41 -31 55
-31 22 0 24 4 24 50 l0 50 -72 0 c-54 0 -84 -6 -115 -21z"/>
<path d="M3280 4164 c0 -4 7 -12 16 -19 12 -8 20 -44 30 -131 7 -65 13 -129
14 -141 0 -17 6 -23 24 -23 20 0 33 15 69 78 25 42 52 90 60 106 l15 30 5 -30
c3 -16 9 -64 12 -107 6 -72 8 -78 28 -75 13 2 39 27 64 63 53 75 135 233 128
246 -7 10 -95 13 -95 3 0 -4 8 -12 17 -19 14 -11 15 -18 4 -57 -7 -25 -31 -74
-54 -109 l-41 -64 -12 120 c-7 66 -13 123 -13 128 -2 14 -51 7 -51 -8 0 -28
-33 -111 -69 -173 -32 -56 -37 -61 -42 -40 -4 13 -7 46 -8 73 -1 28 -4 74 -7
103 l-7 52 -43 0 c-24 0 -44 -3 -44 -6z"/>
<path d="M3825 4000 c-27 -17 -54 -31 -59 -33 -5 -2 -6 -9 -2 -15 6 -9 13 -9
29 3 43 30 47 22 47 -94 0 -115 -2 -121 -51 -121 -10 0 -19 -4 -19 -10 0 -6
38 -10 95 -10 57 0 95 4 95 10 0 6 -10 10 -23 10 -42 0 -47 16 -47 157 0 73
-3 133 -7 132 -5 0 -30 -13 -58 -29z"/>
<path d="M804 3505 c-13 -13 -34 -46 -45 -72 -26 -61 -46 -83 -75 -83 -59 0
-75 81 -24 123 40 34 38 47 -9 47 -39 0 -40 0 -47 -45 -15 -105 23 -185 88
-185 48 0 74 23 113 99 32 65 48 81 81 81 24 0 54 -38 54 -69 0 -32 -34 -81
-56 -81 -8 0 -14 -9 -14 -21 0 -18 5 -20 42 -17 40 3 43 5 51 43 5 22 6 65 3
95 -4 45 -10 60 -36 83 -40 36 -91 37 -126 2z"/>
<path d="M928 3199 c-16 -17 -33 -19 -144 -19 l-126 0 -30 -31 c-29 -28 -30
-34 -25 -87 7 -77 34 -132 64 -132 18 0 23 6 23 25 0 15 -6 25 -14 25 -19 0
-46 39 -46 66 0 38 32 66 82 71 l46 5 7 -53 c14 -108 51 -159 113 -159 49 0
80 22 88 65 8 45 0 77 -31 113 -31 37 -31 44 0 36 24 -6 25 -5 25 45 0 55 -5
60 -32 30z m-35 -99 c56 -44 39 -134 -25 -128 -40 4 -69 42 -75 102 l-6 46 40
0 c25 0 50 -8 66 -20z"/>
<path d="M3280 2864 c0 -4 7 -12 16 -19 12 -8 20 -44 30 -131 7 -65 13 -129
14 -141 0 -17 6 -23 23 -23 18 0 33 17 69 78 25 42 53 90 61 106 l15 30 5 -30
c3 -16 9 -64 12 -107 6 -72 8 -78 28 -75 13 2 39 27 64 63 53 75 135 233 128
246 -7 10 -95 13 -95 3 0 -4 8 -12 17 -19 14 -11 15 -18 4 -57 -7 -25 -31 -74
-54 -109 l-41 -64 -12 125 c-7 69 -13 126 -13 128 -1 1 -12 2 -25 2 -20 0 -25
-7 -31 -37 -4 -21 -28 -78 -53 -128 l-47 -90 -7 50 c-4 28 -10 85 -14 128 l-6
77 -44 0 c-24 0 -44 -3 -44 -6z"/>
<path d="M935 2831 c-8 -27 -43 -31 -281 -31 l-214 0 0 -50 c0 -54 8 -62 28
-30 10 17 23 20 75 20 l62 0 0 -69 c0 -83 18 -114 85 -148 88 -45 230 -21 264
46 27 51 14 115 -28 150 -24 20 -19 34 9 27 24 -6 25 -5 25 49 0 54 -13 73
-25 36z m-53 -102 c29 -16 50 -72 38 -104 -27 -70 -242 -75 -279 -7 -17 33
-13 74 11 99 19 21 30 23 115 23 52 0 103 -5 115 -11z"/>
<path d="M3803 2718 c-25 -8 -33 -17 -33 -34 0 -17 6 -24 20 -24 11 0 20 4 20
10 0 5 11 17 25 26 21 13 31 15 50 6 51 -23 38 -89 -31 -152 -36 -34 -84 -100
-84 -117 0 -10 23 -13 100 -13 l100 0 0 35 c0 39 -5 42 -31 19 -12 -10 -32
-14 -69 -12 l-51 3 72 79 c62 66 73 84 73 114 0 64 -69 89 -161 60z"/>
<path d="M11656 2544 c-36 -31 -66 -60 -66 -65 0 -21 22 -15 81 25 l64 43 65
-43 c45 -31 67 -41 75 -33 12 13 -110 129 -137 129 -9 0 -46 -25 -82 -56z"/>
<path d="M935 2421 c-7 -22 -59 -31 -190 -31 -122 0 -140 -12 -140 -97 0 -32
8 -79 18 -105 15 -39 23 -48 43 -48 34 0 31 31 -6 68 -57 57 -28 122 54 122
l44 0 7 -47 c8 -58 35 -123 60 -143 9 -8 35 -15 57 -15 32 0 45 6 65 30 21 24
24 36 20 72 -3 25 -16 57 -31 78 l-27 35 25 0 c24 0 26 3 26 50 0 50 -13 67
-25 31z m-31 -122 c29 -34 33 -66 12 -94 -15 -21 -67 -25 -90 -6 -17 14 -36
72 -36 109 0 19 5 22 44 22 37 0 48 -5 70 -31z"/>
<path d="M1476 2415 c-24 -23 -34 -45 -19 -45 3 0 14 7 24 16 27 24 45 11 58
-40 17 -67 14 -79 -26 -130 -32 -39 -42 -45 -64 -41 -22 5 -28 2 -33 -17 -9
-36 -8 -38 23 -38 22 0 39 11 70 46 23 26 41 51 41 55 0 5 4 9 9 9 5 0 12 -17
16 -37 11 -59 22 -73 59 -73 33 0 76 33 76 58 0 18 -13 14 -33 -9 -24 -27 -41
-13 -56 46 -17 70 -14 87 29 131 31 33 44 40 65 37 22 -5 25 -2 25 26 0 50
-35 41 -96 -24 l-51 -56 -6 37 c-12 72 -62 95 -111 49z"/>
<path d="M11538 2389 c-23 -23 -28 -33 -19 -42 8 -8 15 -6 27 11 18 26 40 28
53 5 8 -17 61 -263 61 -288 0 -16 -54 -84 -81 -103 -17 -12 -25 -12 -45 -2
-28 16 -32 13 -40 -28 -6 -31 -5 -32 27 -32 65 0 123 54 231 220 64 97 142
256 134 275 -4 10 -20 15 -50 15 -45 0 -68 -13 -41 -24 30 -11 18 -79 -32
-176 -25 -50 -49 -87 -53 -83 -4 4 -12 46 -19 93 -23 159 -38 190 -92 190 -21
0 -41 -10 -61 -31z"/>
<path d="M1813 2280 c-16 -6 -23 -18 -23 -35 0 -32 17 -32 42 0 22 28 59 33
82 9 29 -28 13 -87 -34 -129 -37 -32 -100 -116 -100 -131 0 -11 21 -14 100
-14 73 0 100 3 100 13 0 6 3 22 6 35 5 16 2 22 -9 22 -8 0 -17 -5 -19 -12 -5
-15 -118 -24 -118 -10 0 6 5 14 10 17 6 3 37 38 70 76 66 76 76 113 40 149
-15 15 -33 20 -72 19 -29 0 -63 -4 -75 -9z"/>
<path d="M600 2059 c0 -36 13 -64 48 -101 l26 -28 -32 0 c-32 0 -32 0 -32 -50
0 -54 8 -62 28 -30 11 18 23 20 147 20 124 0 136 -2 147 -20 22 -35 28 -22 28
55 0 71 -12 97 -25 56 -7 -22 -44 -31 -134 -31 -80 0 -131 22 -146 64 -8 24
-6 31 13 46 37 31 29 50 -23 50 -44 0 -45 -1 -45 -31z"/>
<path d="M3642 1988 c-7 -7 -12 -26 -12 -43 0 -38 16 -55 50 -55 39 0 54 15
54 55 0 21 -6 40 -14 46 -21 13 -64 11 -78 -3z"/>
<path d="M914 1776 c3 -13 8 -30 11 -38 17 -43 -52 -67 -192 -68 l-83 0 0 60
c0 53 -2 60 -20 60 -18 0 -20 -7 -20 -60 l0 -60 -45 0 c-41 0 -45 -2 -45 -25
0 -21 5 -25 31 -25 22 0 40 -9 59 -30 34 -36 40 -37 40 -5 l0 25 108 0 c59 0
124 5 144 10 67 19 87 82 47 146 -24 40 -44 45 -35 10z"/>
<path d="M3632 1598 c-7 -7 -12 -26 -12 -43 0 -39 16 -55 55 -55 39 0 55 16
55 55 0 39 -16 55 -55 55 -17 0 -36 -5 -43 -12z"/>
<path d="M935 1501 c-7 -24 -44 -31 -172 -31 -57 0 -112 -4 -122 -10 -26 -13
-45 -65 -37 -101 3 -16 18 -45 32 -64 l26 -35 -26 0 c-25 0 -26 -3 -26 -50 0
-54 8 -62 28 -30 11 18 23 20 147 20 124 0 136 -2 147 -20 22 -34 28 -23 28
50 0 39 -2 70 -5 70 -3 0 -14 -9 -25 -20 -17 -17 -33 -20 -120 -20 -95 0 -101
1 -129 28 -43 40 -48 66 -17 97 24 24 31 25 140 25 105 0 117 -2 128 -20 22
-35 28 -22 28 55 0 71 -12 97 -25 56z"/>
<path d="M3632 1198 c-7 -7 -12 -26 -12 -43 0 -38 16 -55 50 -55 39 0 54 15
54 55 0 21 -6 40 -14 46 -21 13 -64 11 -78 -3z"/>
<path d="M673 1075 c-49 -21 -75 -69 -70 -128 2 -27 13 -61 24 -75 62 -85 243
-98 307 -21 48 56 46 146 -3 201 -35 39 -61 31 -33 -10 58 -83 24 -158 -81
-177 l-37 -7 0 116 0 116 -37 0 c-21 -1 -53 -7 -70 -15z m77 -126 l0 -82 -37
6 c-43 7 -83 46 -83 81 0 27 27 54 66 66 54 16 54 16 54 -71z"/>
<path d="M1486 549 c-14 -11 -26 -27 -26 -35 0 -18 9 -18 31 2 27 25 44 12 57
-46 17 -72 17 -72 -29 -124 -33 -38 -47 -46 -64 -42 -23 6 -35 -8 -35 -40 0
-11 9 -14 32 -12 25 2 42 15 75 56 25 31 45 48 47 40 3 -7 7 -26 11 -43 9 -43
23 -55 59 -55 21 0 40 8 55 24 30 32 18 56 -13 27 -30 -28 -43 -16 -60 57
l-14 62 40 50 c43 54 47 57 66 38 16 -16 32 5 32 40 0 45 -60 20 -110 -45
l-35 -46 -12 43 c-7 23 -18 48 -24 56 -17 20 -52 17 -83 -7z"/>
<path d="M3287 541 c17 -17 23 -41 33 -155 13 -133 14 -136 37 -136 25 0 61
48 119 160 l29 55 9 -107 c8 -104 9 -108 32 -108 18 0 35 17 72 73 50 73 122
208 122 227 0 5 -21 10 -47 10 -37 0 -44 -3 -35 -12 26 -26 8 -91 -50 -181
-20 -32 -34 -44 -38 -36 -5 6 -11 61 -15 121 -7 109 -7 109 -32 106 -21 -2
-28 -12 -42 -58 -10 -30 -35 -86 -57 -123 l-39 -69 -8 94 c-14 166 -11 158
-64 158 -47 0 -47 0 -26 -19z"/>
<path d="M1830 425 c0 -3 5 -13 11 -23 15 -24 -34 -251 -58 -269 -15 -11 -15
-13 1 -19 29 -11 148 6 191 26 56 28 88 78 93 150 4 52 2 60 -25 90 -22 25
-41 35 -79 41 -56 9 -134 11 -134 4z m143 -37 c34 -18 46 -40 46 -83 1 -88
-63 -165 -136 -165 -40 0 -40 -3 -8 138 14 61 25 113 25 116 0 10 51 6 73 -6z"/>
<path d="M3800 425 c0 -3 5 -14 11 -24 16 -24 -33 -250 -58 -268 -15 -12 -15
-13 1 -19 31 -12 150 6 195 29 56 28 91 89 91 158 0 67 -36 108 -106 120 -56
9 -134 11 -134 4z m143 -37 c35 -18 46 -40 47 -86 0 -85 -64 -162 -137 -162
-18 0 -33 3 -33 8 0 4 12 62 26 130 26 115 28 122 51 122 13 0 34 -5 46 -12z"/>
</g>
</svg>
